# xmcd CD database file
#
# Track frame offsets:
#	150
#	17045
#	31906
#	53800
#	69646
#	96593
#	118280
#	156945
#	176620
#	189398
#	205805
#	230568
#	248517
#	268850
#
# Disc length: 3825 seconds
#
# Revision: 0
# Processed by: cddbd v1.5.1PL0 Copyright (c) Steve Scherf et al.
# Submitted via: CDex 1.51
#
DISCID=c60eef0e
DTITLE=Frederic Delarue - Dolphins... A Message Of Love
DYEAR=2004
DGENRE=New Age
TTITLE0=Welcome
TTITLE1=Ballet Of Light
TTITLE2=Waves Of Love
TTITLE3=Sincere Communion
TTITLE4=A Message Of Love
TTITLE5=Marie De La Mer
TTITLE6=Revelation
TTITLE7=Calm In My Spirit
TTITLE8=Splash of Joy
TTITLE9=From My Heart
TTITLE10=Angels Of The Sea
TTITLE11=Reverence
TTITLE12=Dance Of Love
TTITLE13=Rejoice
EXTD=YEAR: 2004
EXTT0=
EXTT1=
EXTT2=
EXTT3=
EXTT4=
EXTT5=
EXTT6=
EXTT7=
EXTT8=
EXTT9=
EXTT10=
EXTT11=
EXTT12=
EXTT13=
PLAYORDER=
